# xmcd
#
# Track frame offsets: 
#        150
#        12925
#        25967
#        45820
#        60977
#        78020
#        90117
#        108645
#        126467
#        141142
#
# Disc length: 2079 seconds
#
# Revision: 2
# Processed by: cddbd v1.5.2PL0 Copyright (c) Steve Scherf et al.
# Submitted via: ExactAudioCopy v0.99pb5
#
DISCID=6d081d0a
DTITLE=John Michael Montgomery - Kickin' It Up
DYEAR=1994
DGENRE=
TTITLE0=Be My Baby Tonight
TTITLE1=Full-time Love
TTITLE2=I Swear
TTITLE3=She Don't Need A Band To Dance
TTITLE4=All In My Heart
TTITLE5=Friday At Five
TTITLE6=Rope The Moon
TTITLE7=If You've  Got Love
TTITLE8=Oh How She Shines
TTITLE9=Kick It Up
EXTD=
EXTT0=
EXTT1=
EXTT2=
EXTT3=
EXTT4=
EXTT5=
EXTT6=
EXTT7=
EXTT8=
EXTT9=
PLAYORDER=
